<svg width="160" height="147" viewBox="0 0 160 147" fill="none" xmlns="http://www.w3.org/2000/svg">
<path d="M87.4429 62.5845C88.0429 63.0287 88.6095 63.6591 88.9071 64.3326C89.2262 65.0538 89.631 65.3475 90.3048 65.3356C92.3548 56.0962 94.4048 46.8615 96.4548 37.615C106.362 37.2281 116.093 37.3093 125.919 37.88C126.231 38.8281 125.881 39.8048 125.733 40.7409C124.383 49.2424 122.738 57.6866 120.871 66.0878C120.705 66.8424 120.457 67.5803 120.224 68.409H132.65C130.883 64.8078 130.167 60.963 129.383 56.9463C130.179 56.6526 130.957 56.366 131.764 56.0675C131.3 55.3654 130.84 54.6991 130.41 54.0114C129.074 51.8717 129.031 49.5123 129.226 47.1003C129.4 44.9463 129.512 42.7899 129.655 40.6335C129.686 40.1582 129.669 39.6711 129.771 39.2126C130.031 38.0544 130.671 37.6317 131.845 37.7869C132.09 37.8203 132.329 37.9206 132.59 37.9947C132.59 37.1421 132.569 36.3326 132.595 35.5254C132.629 34.4866 133.038 33.5672 133.743 32.8388C134.148 32.4209 134.688 32.0651 135.236 31.8669C136.148 31.5373 136.979 32.0197 137.231 32.9702C137.371 33.5027 137.49 34.0973 137.407 34.6275C137.029 36.9965 137.329 39.2627 138.1 41.5194C138.786 43.5326 139.221 45.615 139.071 47.7666C139.01 48.655 138.845 49.5338 138.726 50.4221C140.34 50.3744 141.864 49.197 142.155 47.6329C142.357 46.5344 142.395 45.4024 142.448 44.2824C142.507 43.0144 142.717 41.7917 143.271 40.643C144.026 39.0812 145.364 38.3815 146.998 38.1976C148.01 38.0854 148.462 38.5224 148.407 39.5278C148.369 40.2132 148.179 40.889 148.093 41.5768C147.836 43.6759 147.569 45.7773 147.357 47.8812C147.15 49.9373 146.336 51.6926 145.01 53.2639C144.207 54.212 143.54 55.2771 142.821 56.2776C143.024 56.5332 143.102 56.7457 143.238 56.7887C144.51 57.2114 144.671 58.212 144.474 59.3057C144.164 61.006 143.731 62.6848 143.407 64.3827C143.15 65.732 142.981 67.0979 142.762 68.5212C143.088 68.5618 143.333 68.6144 143.579 68.6191C146.257 68.6621 148.938 68.6908 151.617 68.7409C153.083 68.7696 154.55 68.8484 156.017 68.877C156.531 68.8866 157.052 68.8555 157.562 68.7863C159.7 68.4949 159.893 69.4167 159.976 70.9093C160.088 72.9176 159.014 73.9278 156.993 73.9397C154.967 73.9493 152.94 73.9397 150.836 73.9397C151.04 76.3541 151.269 78.6562 151.419 80.9678C151.495 82.1332 151.436 83.3081 151.433 84.4806C151.431 87.4203 151.424 90.36 151.424 93.2997C151.424 93.646 151.445 93.9923 151.448 94.3409C151.479 110.649 151.505 126.957 151.538 143.265C151.538 143.869 151.581 144.473 151.621 145.075C151.705 146.317 151.133 146.955 149.898 146.957C148.888 146.957 148.048 146.475 147.364 145.82C147.088 145.555 147.05 144.951 147.048 144.5C147.029 139.251 147.036 134.004 147.036 128.755C147.036 117.694 147.06 106.635 147.033 95.5732C147.019 89.4645 146.914 83.3535 146.874 77.2448C146.867 76.2132 146.986 75.1815 147.055 73.9994C122.564 74.0902 98.1571 74.1809 73.819 74.2717C73.8619 76.0579 73.8952 77.8156 73.9524 79.5732C73.9809 80.5045 74.0548 80.5547 75.0333 80.5976C77.7976 80.7194 80.5476 80.9941 83.2262 81.7033C84.3452 81.9994 85.4357 82.4412 86.4952 82.9117C88.4452 83.7785 89.3643 85.4239 89.7595 87.4514C90.3119 90.2956 89.3976 92.8556 88.1929 95.3176C87.4357 96.8627 86.481 98.3242 85.5095 99.7499C84.0786 101.854 82.5524 103.896 81.0071 106.047C81.3405 106.312 81.6548 106.592 81.9976 106.828C86.5833 110.009 91.181 113.168 95.7548 116.366C97.6667 117.703 99.6286 119.002 101.383 120.528C103.469 122.343 105.357 124.387 107.331 126.331C107.814 126.807 107.776 127.334 107.448 127.857C107.29 128.108 107.057 128.309 106.76 128.643C107.424 129.216 108.067 129.763 108.702 130.319C111.871 133.092 115.24 135.559 119.062 137.379C121.219 138.405 123.455 139.177 125.764 139.762C126.307 139.9 126.843 140.072 127.381 140.225C127.957 140.387 128.469 140.676 128.531 141.314C128.595 141.992 128.333 142.63 127.695 142.94C127.043 143.256 126.348 143.554 125.64 143.669C123.438 144.022 121.255 143.712 119.09 143.282C116.976 142.862 114.876 142.35 112.745 142.028C111.302 141.808 109.819 141.744 108.36 141.785C106.529 141.835 105.262 141.123 104.529 138.969C104.181 137.952 104.029 136.867 103.786 135.814C103.5 134.587 103.114 133.402 102.383 132.476C100.721 133.016 99.1571 133.667 97.5262 134.023C92.8309 135.045 88.3595 134.198 84.081 132.113C80.7286 130.479 77.5714 128.538 74.631 126.059C74.3119 126.797 74.3929 127.523 74.3905 128.223C74.3738 131.779 74.4024 135.337 74.3738 138.893C74.3595 140.841 74.2929 142.787 74.1976 144.734C74.1357 146.002 73.4238 147.313 71.5333 146.833C71.0357 146.706 70.519 146.606 70.0548 146.396C69.0262 145.928 68.4833 145.149 68.4905 143.95C68.5119 139.396 68.4857 134.845 68.4833 130.291C68.4833 128.251 68.5 126.214 68.5 124.175C68.5 115.934 68.5 107.693 68.5 99.4514V98.0806C63.3976 95.8908 59.6119 92.1248 55.8524 88.3111C58.3357 88.9153 60.3024 90.4866 62.4429 91.7236C64.6238 92.9845 66.6071 94.489 68.3905 96.6048C68.45 96.0699 68.5119 95.7523 68.5167 95.4323C68.5738 90.8782 68.6024 86.3242 68.681 81.7702C68.719 79.4776 68.8429 77.1875 68.9238 74.895C68.931 74.7254 68.8952 74.5535 68.8714 74.2836C67.8429 74.2191 66.8214 74.1045 65.8 74.1093C64.6595 74.1141 63.5286 73.8991 62.3714 74.372C61.681 74.6538 60.9286 74.0615 60.5619 73.4167C60.0952 72.6 59.7524 71.695 60.0762 70.6967C60.1524 70.4579 60.1381 70.1881 60.1548 70.0496C59.5071 69.775 58.9333 69.529 58.2881 69.2544C57.2976 70.6585 55.6429 70.5726 54.0643 70.8758C54.3548 71.769 54.531 72.5857 54.8857 73.3117C55.1167 73.7869 55.5571 74.2048 55.9929 74.5248C56.8643 75.1624 57.7857 75.7308 58.7048 76.2991C59.5929 76.8484 60.1024 77.5648 59.9452 78.6609C59.9095 78.9069 59.9619 79.1648 59.9762 79.5015C62.5357 79.4967 65.0595 79.1242 67.7071 79.7738C67.3238 80.3015 66.9548 80.3875 66.5214 80.4615C64.2333 80.8556 61.969 80.7481 59.669 80.1726C58.5048 82.2311 56.5 82.7923 54.4143 83.0239C51.8881 83.3057 49.3429 83.4275 46.8024 83.5684C43.2571 83.7642 39.8905 84.5618 36.8119 86.3958C36.069 86.8376 35.3238 87.2794 34.6095 87.7666C32.031 89.5218 29.3786 91.1338 26.169 92.3039C27.581 93.4788 28.7429 94.5081 29.9667 95.4538C37.5071 101.281 45.5214 106.403 53.5881 111.451C57.3262 113.792 61.0119 116.22 64.6952 118.647C65.519 119.189 66.2595 119.869 67.0048 120.524C67.2357 120.724 67.3571 121.049 67.7191 121.615C66.9095 121.524 66.3833 121.579 65.9548 121.398C64.65 120.841 63.3357 120.282 62.1143 119.566C59.5048 118.035 56.9548 116.402 54.3762 114.816C54.1238 114.661 53.8548 114.532 53.5619 114.374C51.5738 119.191 48.2976 123.143 45.5167 127.406C45.1857 127.912 44.8119 128.397 44.5191 128.925C44.1167 129.646 44.3048 130.054 45.1286 130.229C45.5881 130.327 46.0714 130.341 46.5452 130.339C51.5 130.305 56.3571 129.753 60.9381 127.666C62.4357 126.983 63.6119 125.942 64.6167 124.662C65.231 123.881 65.8619 123.112 66.5262 122.372C66.7548 122.116 67.1024 121.968 67.6167 121.622C67.4929 122.936 67.0405 123.795 66.581 124.657C64.9476 127.721 62.3095 129.465 59.0667 130.391C57.6571 130.795 56.2214 131.105 54.7976 131.463C54.469 131.545 54.1452 131.64 53.781 131.74V132.975C54.2214 132.996 54.6024 133.004 54.9833 133.035C55.9333 133.106 56.7119 133.496 57.3143 134.26C57.7667 134.835 58.2119 135.437 58.7619 135.905C59.7262 136.724 60.1857 137.715 60.081 139.057C60.981 139.358 61.8786 139.638 62.7571 139.962C63.2809 140.156 63.8357 140.347 64.2667 140.684C64.6024 140.946 64.931 141.414 64.969 141.82C65.0214 142.365 64.6 142.797 64.0357 142.912C62.6452 143.196 61.2524 143.621 59.8524 143.659C57.4405 143.724 55.0214 143.494 52.6048 143.473C51.0119 143.459 49.4167 143.611 47.8214 143.654C47.1357 143.671 46.4262 143.688 45.7643 143.54C44.5571 143.27 43.8119 142.336 43.8714 141.094C43.9167 140.158 44.1881 139.232 44.3643 138.3C44.4095 138.064 44.4714 137.832 44.5262 137.605C44.3619 137.548 44.281 137.491 44.2071 137.498C43.6119 137.567 43.0191 137.648 42.381 137.732C42.3262 138.233 42.2929 138.704 42.2214 139.167C41.9262 141.08 40.7738 142.384 39.1048 142.709C37.6286 142.995 36.3381 142.398 35.6167 141.092C35.0833 140.13 35.0048 139.714 34.9191 137.405C32.4 137.352 29.8762 137.319 27.3524 137.242C24.8619 137.168 22.4119 136.462 19.7476 136.667C20.55 138.116 20.6857 139.492 19.9381 140.899C19.5357 141.656 19.0167 142.257 18.2095 142.575C16.3786 143.299 14.4595 142.499 13.4262 140.586C12.1286 138.188 12.4857 137.359 15.9262 134.909C15.7429 134.011 16.0405 133.219 16.6857 132.507C17.4357 131.683 18.3929 131.301 19.4381 131.229C20.7238 131.143 22.0357 131.081 23.3095 131.232C26.3048 131.585 29.2857 132.06 32.2691 132.507C32.7786 132.583 33.2691 132.767 33.8714 132.93C33.8381 132.622 33.8071 132.347 33.7786 132.07C33.5905 130.179 33.3357 128.292 33.2357 126.396C33.1262 124.321 33.1952 122.233 33.1167 120.156C33.0571 118.57 33.2762 117.054 33.8857 115.59C34.2095 114.811 34.1691 114.038 34.0857 113.187C33.9429 111.738 34.0857 110.26 34.1143 108.796C34.119 108.586 34.1452 108.378 34.1691 108.06C33.1429 107.781 32.1429 107.554 31.1691 107.236C27.7619 106.131 24.3286 105.094 20.9762 103.836C18.2952 102.83 15.8619 101.305 13.7238 99.3726C12.2857 98.0735 11.4476 96.452 11.4214 94.4699C11.4048 93.295 11.8929 92.3541 12.8762 91.7356C14.931 90.446 17.2095 90.0711 19.5881 90.2836C20.7857 90.3911 21.9738 90.6036 23.2452 90.7827C22.5952 89.3045 21.6214 88.1081 20.581 86.9785C18.869 85.123 17.3357 83.1529 16.2167 80.8006C15.9262 80.8221 15.6333 80.815 15.35 80.8675C13.2405 81.2591 11.5571 80.5308 10.119 78.9905C8.00476 76.7218 6.62381 74.0376 5.73095 71.1123C3.44286 63.6185 1.38571 56.0651 0.688096 48.2156C0.44762 45.5027 0.0523829 42.7875 0.0571448 40.0747C0.0642877 36.4066 0.0214306 32.6979 0.976193 29.1111C1.36191 27.6639 1.96429 26.2478 2.65238 24.9129C4.10952 22.0878 6.66191 21.0251 9.66191 21.1541C12.219 21.2639 14.55 22.2263 16.4786 23.9767C17.0119 24.4591 17.4333 25.0657 18.0262 25.7559C18.4286 24.4735 18.8024 23.3033 19.1595 22.1284C20.1143 18.9833 20.9929 15.8144 22.0286 12.6979C22.9357 9.97316 24.2119 7.41556 26.1571 5.24959C28.1952 2.97854 30.8762 1.95406 33.7595 1.37615C35.8857 0.948686 38.0357 0.848388 40.2048 1.05615C43.0429 1.33078 45.2024 2.7063 46.5881 5.14928C48.031 7.69257 48.8762 10.4388 49.0667 13.4072C49.2643 16.4615 49.6524 19.5063 50.0167 22.5487C50.1024 23.2675 50.3881 23.972 50.6381 24.6621C51.4524 26.9117 51.9857 29.2114 52.0714 31.6138C52.15 33.8681 51.4619 35.8788 50.2143 37.7153C49.3429 39 48.4262 40.2562 47.4929 41.5768C50.1667 44.4042 52.3238 47.6496 54.431 50.926C56.9333 54.8114 60.5024 57.3785 64.55 59.3893C65.7429 59.9815 67.0262 60.1105 68.3262 60.1535C69.5952 60.1941 70.7357 60.6287 71.919 61.0753C73.2476 61.5744 74.5762 62.2932 76.1381 62.0209C76.7381 61.9159 77.4595 62.0711 78.0238 62.3314C78.5667 62.5821 78.9881 62.4914 79.4952 62.3648M30.5286 37.923C30.5286 38.477 30.5714 38.8257 30.5214 39.1624C30.0762 42.2263 28.769 43.6735 25.719 43.6305C24.6905 43.6162 23.6667 43.4203 22.6405 43.3105C21.7 43.2102 20.7548 43.0048 19.8214 43.0454C18.1714 43.1147 17.119 44.2394 16.1071 45.4048C15.4571 46.1523 14.7881 46.9069 14.0238 47.5302C12.8595 48.4806 11.8881 48.4257 10.7714 47.4179C9.60238 46.36 9.06905 44.9559 8.74762 43.4394C8.40953 41.837 8.74762 40.249 8.80238 38.6609C8.87381 36.5881 9.72857 34.8138 11.2286 33.369C12.7524 31.9003 14.2667 30.4221 15.7952 28.9582C16.5762 28.2108 17.3048 27.4347 17.6595 26.3218C17.4191 26.1427 17.2286 25.9684 17.0119 25.8442C14.7524 24.5523 12.3167 23.8812 9.71905 23.8765C7.48572 23.8717 5.72381 24.8173 4.45476 26.6729C3.69048 27.7929 3.0381 28.9797 2.8119 30.3194C2.43095 32.5738 2.02381 34.8329 1.84048 37.1087C1.43333 42.1379 1.95 47.1385 2.65476 52.1081C3.55 58.4174 5.21905 64.5571 7.0381 70.649C7.79762 73.1923 8.97143 75.5254 10.6833 77.6126C12 79.2197 13.6595 79.64 15.7 79.769C12.0119 69.4406 11.7262 59.055 14.1452 48.5475C14.269 49.0442 14.2619 49.5457 14.269 50.0448C14.3238 53.9827 14.4095 57.9182 14.4309 61.8562C14.4548 66.2215 15.3048 70.4484 16.3595 74.6538C17.2571 78.2358 18.7357 81.5099 21.1786 84.3182C22.4571 85.7893 23.6405 87.3344 24.4571 89.1278C24.581 89.4 24.7667 89.6508 24.9548 89.8872C25.6238 90.7254 26.4976 90.9809 27.4929 90.5511C28.1238 90.2788 28.7262 89.923 29.3 89.5433C30.8881 88.495 32.4643 87.4299 34.0262 86.3409C37.2071 84.1224 40.7262 82.7684 44.5524 82.243C47.3286 81.8633 50.1238 81.6269 52.8929 81.2042C54.1119 81.0179 55.3071 80.5857 56.4714 80.1535C56.9714 79.9672 57.419 79.5469 57.7952 79.1457C58.3071 78.5964 58.2405 78.0591 57.6405 77.5982C57.0238 77.1254 56.3857 76.6669 55.7095 76.2848C53.5976 75.0884 52.7667 73.3403 53.35 70.8209C52.7595 70.8209 52.2095 70.8329 51.6595 70.8209C48.1619 70.7373 44.6786 70.5272 41.2452 69.7845C37.1667 68.9033 33.25 67.6353 29.7381 65.2687C24.0667 61.4478 20.3429 56.0484 17.3048 50.0735C17.15 49.7702 17.1238 49.4024 17.0381 49.0657C17.1286 49.0275 17.2167 48.9869 17.3071 48.9487C17.6095 49.295 17.9333 49.6245 18.2119 49.9899C20.0738 52.4305 21.8881 54.9093 23.7881 57.3188C27.2095 61.6579 31.5786 64.6024 36.8738 66.2072C41.15 67.5063 45.5238 68.2466 49.9476 68.7266C51.831 68.932 53.7286 69.0251 55.619 69.1373C56.6643 69.1994 57.5238 68.7529 57.9452 67.8C58.6381 66.2287 58.8738 64.4687 59.8762 63.0167C59.9381 62.926 59.8976 62.766 59.9048 62.6466C59.0905 62.009 58.2833 61.7033 56.9524 61.4454C54.15 60.9009 51.3619 61.2854 48.5714 61.5433C44.8619 61.8848 41.4191 61.2185 38.4857 58.7612C35.6 56.3445 33.6262 53.2735 32.2357 49.8036C32.081 49.4167 32.0167 48.9917 31.8595 48.3923C33.3071 50.2191 34.5262 51.9003 35.8952 53.4502C37.6857 55.4776 39.7214 57.2138 42.4167 57.9565C44.2524 58.4627 46.1024 58.6609 47.9976 58.3791C46.669 56.8508 45.3024 55.4633 44.1571 53.9135C42.981 52.323 42.0048 50.5797 42.0214 48.4042C44.2429 51.1457 46.4143 53.8203 48.581 56.5021C49.0405 57.0729 49.4762 57.6651 49.969 58.3123C50.25 58.3123 50.5929 58.3123 50.9381 58.3123C52.3167 58.317 53.7024 58.2335 55.0714 58.3481C56.9119 58.5033 58.5905 59.1696 60.0262 60.3803C60.8476 61.0729 61.2952 61.8824 60.9571 62.9881C60.9143 63.129 60.931 63.2866 60.9143 63.4991C63.6643 63.2364 66.1405 62.3982 68.7714 61.5505C67.5548 60.9988 66.4143 60.8365 65.2452 60.815C62.2119 60.7553 59.4952 59.7785 57.0595 57.9827C54.6833 56.2299 52.9857 53.88 51.4095 51.4347C48.6167 47.1003 45.7548 42.8209 42.1286 39.1242C40.781 37.7487 39.55 36.2323 37.6952 35.2771C37.6524 35.6854 37.65 36.0221 37.5762 36.3397C36.8214 39.6209 34.9524 40.5666 32.1048 39.0144C31.6214 38.7517 31.1952 38.3863 30.5167 37.9111L30.5286 37.923ZM106.495 126.768C106.35 126.608 106.257 126.46 106.126 126.37C103.395 124.473 100.721 122.491 97.9167 120.715C89.7286 115.53 81.6238 110.25 75 103.031C74.9024 102.924 74.7524 102.864 74.519 102.711C74.4976 103.062 74.4714 103.265 74.4714 103.47C74.4714 110.489 74.4714 117.51 74.4714 124.528C74.4714 124.657 74.481 124.789 74.4714 124.918C74.4357 125.362 74.6333 125.62 75.0309 125.827C78.4357 127.609 81.8381 129.4 85.481 130.654C89.519 132.044 93.6381 132.485 97.831 131.444C101.06 130.642 103.964 129.199 106.498 126.768H106.495ZM158.467 72.7959C158.593 72.2084 158.764 71.7212 158.793 71.2221C158.883 69.6412 158.752 69.4979 157.181 69.529C153.769 69.5982 150.36 69.7726 146.948 69.7702C129.612 69.7606 112.276 69.7176 94.9405 69.6675C86.1643 69.6412 77.3905 69.5744 68.6167 69.5194C67.4071 69.5123 66.1976 69.4526 64.9881 69.4359C63.881 69.4215 62.7714 69.4335 61.5905 69.4335C61.5024 69.7176 61.3619 70.0352 61.3095 70.3672C61.2476 70.7493 61.2429 71.1433 61.2452 71.5326C61.2548 72.8842 61.7095 73.283 63.0667 73.2114C65.1762 73.0991 67.2881 72.9439 69.4 72.9224C76.0143 72.8508 82.6286 72.8054 89.2429 72.803C111.726 72.7887 134.207 72.7982 156.69 72.7982C157.248 72.7982 157.802 72.7982 158.471 72.7982L158.467 72.7959ZM80.0643 105.412C80.4095 104.538 80.6143 103.721 81.0262 103.029C82.0643 101.285 83.2048 99.6018 84.2857 97.8848C85.2262 96.3875 86.2286 94.9188 87.0429 93.3523C87.7786 91.9314 88.2238 90.3839 88.1381 88.7338C88.0452 86.9212 87.3 85.5791 85.4976 84.9941C84.5143 84.6741 83.5286 84.3588 82.5333 84.0794C79.7643 83.3033 76.8976 82.8615 74.1524 81.4382C74.2571 88.1821 74.3595 94.7803 74.4619 101.381C76.3071 102.709 78.1286 104.02 80.0619 105.412H80.0643ZM31.2976 24.8938C31.4262 25.6126 31.5024 26.2597 31.6691 26.8806C31.7476 27.1744 31.95 27.48 32.1833 27.6758C33.2738 28.5905 34.4738 29.3905 35.4857 30.3839C36.7048 31.5803 37.9429 31.6018 39.3905 30.9356C43.0405 29.2591 44.8881 26.212 45.8429 22.489C46.5095 19.8955 46.5214 17.2639 46.0643 14.6394C45.8238 13.2567 45.4262 11.9027 45.0786 10.4532C44.2286 11.043 43.5857 11.6735 42.8143 11.9815C41.4619 12.5236 40.0524 12.9511 38.631 13.2735C36.4738 13.7606 34.4571 14.5869 32.4191 15.4681C36.0333 19.0884 34.2691 23.609 31.2976 24.8914V24.8938ZM41.6952 107.112C41.7452 107.012 41.7976 106.912 41.8476 106.811C41.4691 106.534 41.0833 106.265 40.7119 105.978C37.7429 103.681 34.6976 101.472 31.8357 99.0502C29.9333 97.4406 28.2548 95.5541 26.5452 93.7296C25.969 93.1159 25.631 92.2681 24.6738 92.1152C23.75 90.852 22.519 91.1958 21.2952 91.4561C20.8333 91.5541 20.3571 91.5851 19.8881 91.6567C18.1786 91.9099 16.4762 92.1988 14.931 93.0275C14.481 93.2687 14.0691 93.5935 13.6643 93.9111C13.2905 94.2048 13.2357 94.5654 13.3405 95.0621C13.5833 96.2203 14.1405 97.1445 15.0429 97.8872C17.719 100.094 20.7619 101.622 24.0786 102.525C29.9333 104.12 35.8238 105.591 41.7 107.115L41.6952 107.112ZM72.8762 145.197C72.7929 143.743 72.6738 142.544 72.6619 141.34C72.6119 136.137 72.5667 130.933 72.5714 125.727C72.5833 111.676 72.6048 97.6245 72.669 83.5732C72.6833 80.4782 72.8905 77.3857 73.0143 74.2048C72.3309 74.2048 71.7738 74.2 71.2143 74.2048C70.6738 74.2096 70.131 74.2239 69.5619 74.2335C69.7048 76.5212 69.8619 78.6299 69.9619 80.7385C70.0762 83.16 70.15 85.5815 70.2262 88.003C70.3214 90.9881 70.4333 93.9732 70.4809 96.9582C70.5429 100.903 70.5952 104.848 70.5643 108.793C70.519 115.074 70.4167 121.357 70.3119 127.638C70.2548 131.1 70.1571 134.563 70.05 138.023C70.0048 139.492 69.8738 140.956 69.8095 142.425C69.7762 143.234 69.8024 144.046 69.8024 144.951C70.85 145.032 71.7357 145.102 72.8762 145.19V145.197ZM40.2262 109.3C40.1214 110.054 39.9619 110.859 39.9071 111.671C39.8524 112.476 39.8143 113.302 39.9238 114.097C40.0905 115.294 40.4381 116.464 40.6262 117.656C40.7595 118.506 40.831 119.377 40.8071 120.237C40.7071 124.032 40.5595 127.824 40.4405 131.619C40.4167 132.354 40.7143 132.588 41.4548 132.59C42.4857 132.593 43.5167 132.629 44.5476 132.66C44.8929 132.669 45.2357 132.7 45.5786 132.722C45.3357 132.536 45.0857 132.526 44.8405 132.497C42.9357 132.27 41.2667 129.82 42.5357 127.876C42.9619 127.227 43.3333 126.532 43.8167 125.93C46.0405 123.167 48.2976 120.435 50.5381 117.684C51.4571 116.555 52.3619 115.411 53.2452 114.307C53.0905 114.1 53.0524 114.009 52.9857 113.966C50.6857 112.507 48.3857 111.05 46.0762 109.608C45.8738 109.481 45.6048 109.402 45.3643 109.398C43.6881 109.352 42.0119 109.328 40.2238 109.297L40.2262 109.3ZM150.35 145.183C150.114 121.476 149.705 97.7678 150.24 74.0496H147.817C147.817 74.5845 147.8 75.0167 147.819 75.449C147.9 77.3475 148.038 79.246 148.064 81.1445C148.107 84.2179 148.064 87.2938 148.079 90.3696C148.1 95.7427 148.152 101.116 148.16 106.491C148.174 116.156 148.169 125.823 148.16 135.487C148.16 137.567 148.093 139.647 148.086 141.727C148.081 142.842 148.14 143.96 148.171 145.049C148.945 145.379 149.586 145.562 150.352 145.183H150.35ZM46.3905 23.48C46.4714 23.5397 46.5524 23.597 46.631 23.6567C46.9262 23.4275 47.3452 23.2627 47.5 22.9618C48.3738 21.2544 48.831 19.4442 47.9167 17.6365C47.5643 16.9391 47.5643 16.4018 47.7238 15.695C47.9857 14.532 48.2643 13.3809 48.0524 12.1248C47.6667 9.83943 46.9691 7.64958 46.0071 5.58391C45.0286 3.47764 43.3786 2.05914 40.8476 2.10928C40.5476 2.11406 40.2476 2.04242 39.9476 2.0257C36.9 1.85376 34.0952 2.55107 31.7381 4.55227C30.0357 5.99705 28.769 7.80003 28.0071 9.92301C27.331 11.8048 26.869 13.7296 26.9762 15.6567C26.3643 16.1535 25.7857 16.5403 25.3095 17.0275C23.15 19.2341 24.1143 23.2747 27.031 24.2967C27.3524 24.409 27.7048 24.4281 28.0405 24.4997C29.4048 24.7911 30.3214 23.9338 31.2833 23.2126C33.7905 21.3332 33.8095 18.1093 31.3333 16.1678C31 15.9075 30.6619 15.652 30.3357 15.4012C30.4548 12.8723 31.1119 10.5582 32.4262 8.47108C33.9905 5.98511 36.3214 4.69794 39.2238 4.64541C40.4976 4.62153 41.7857 4.93675 43.0524 5.17317C44.6833 5.47884 45.7405 6.52481 46.2833 8.05078C47.031 10.1547 47.2548 12.3302 47.0833 14.563C46.9976 15.6759 46.9762 16.8078 47.069 17.9182C47.1714 19.1385 47.1714 20.3278 46.8476 21.5123C46.6691 22.1618 46.5429 22.8257 46.3929 23.4824L46.3905 23.48ZM135.917 33.3547C134.417 33.7988 133.66 34.8162 133.843 36.3302C133.981 37.4765 134.321 38.6132 134.7 39.7093C135.11 40.8914 135.681 42.0185 136.162 43.1767C137.317 45.9636 136.283 48.237 134.45 50.2979C134.04 50.7565 133.495 51.0884 132.831 50.8496C132.143 50.6036 131.814 50.0066 131.771 49.3451C131.726 48.6669 131.8 47.9624 131.94 47.2938C132.25 45.8132 132.681 44.3588 132.969 42.8735C133.198 41.6914 132.924 40.5356 132.288 39.523C132.124 39.2627 131.669 39.1457 131.324 39.0717C131.252 39.0573 130.995 39.5278 130.967 39.7905C130.874 40.6884 130.84 41.5959 130.795 42.4985C130.671 44.8747 130.498 47.2484 130.45 49.6269C130.405 52.0078 131.443 54.04 132.567 55.8239C135.674 55.7523 138.59 55.683 141.521 55.6138C141.902 54.1236 142.805 52.9105 143.94 51.8884C145.231 50.7254 145.938 49.3141 146.093 47.5947C146.252 45.8323 146.433 44.0699 146.61 42.3099C146.681 41.603 146.76 40.8985 146.84 40.132C145.067 40.7051 144.34 41.6723 144.193 43.5302C144.098 44.7362 144.057 45.9469 143.917 47.1481C143.586 49.9779 141.686 51.9027 139 52.1917C137.883 52.3111 137.157 51.6639 137.193 50.5391C137.202 50.2 137.295 49.8538 137.4 49.529C137.845 48.132 137.886 46.7206 137.564 45.3021C137.267 43.9959 137.043 42.6609 136.595 41.4072C135.893 39.437 135.802 37.4335 135.91 35.3869C135.943 34.7445 135.914 34.0973 135.914 33.357L135.917 33.3547ZM133.898 68.5785H140.94C141.619 65.8681 142.276 63.2412 142.933 60.6144C143.06 60.1105 143.195 59.6114 143.3 59.1027C143.555 57.849 143.19 57.5099 141.886 57.5266C139.731 57.5529 137.574 57.4884 135.419 57.4741C133.75 57.4621 132.079 57.4741 130.245 57.4741C131.762 61.2018 133.093 64.7959 133.898 68.5833V68.5785ZM103.029 131.907C104.462 133.407 105 135.282 105.526 137.161C105.607 137.453 105.705 137.739 105.802 138.026C106.369 139.664 106.826 139.986 108.569 139.936C109.129 139.919 109.69 139.788 110.24 139.829C113.043 140.032 115.805 140.478 118.521 141.223C120.867 141.866 123.269 142.102 125.7 142.028C126.293 142.009 126.881 141.973 127.429 141.355C126.648 141.164 125.983 141.001 125.321 140.836C123.983 140.505 122.614 140.266 121.312 139.824C117.424 138.508 113.995 136.335 110.721 133.904C108.995 132.622 107.312 131.284 105.571 129.942C104.736 130.587 103.924 131.213 103.026 131.905L103.029 131.907ZM47.4381 132.459C46.9333 134.093 46.3905 135.683 45.9619 137.302C45.631 138.546 45.419 139.826 45.1976 141.097C45.0714 141.827 45.2619 142.071 45.981 142.119C46.581 142.159 47.1857 142.107 47.7881 142.085C49.7643 142.016 51.7405 141.87 53.7143 141.885C56.5143 141.906 59.3119 142.062 62.1119 142.126C62.6929 142.14 63.2762 142.004 63.8595 141.937C63.869 141.844 63.8762 141.751 63.8857 141.658C63.4952 141.515 63.1119 141.345 62.7143 141.233C61.5952 140.918 60.469 140.624 59.3452 140.323C57.6667 139.874 56.0357 139.279 54.6357 138.243C52.8762 136.944 51.9738 135.213 52.4357 132.946C52.5 132.633 52.5405 132.313 52.6119 131.876C50.8214 132.077 49.1667 132.263 47.4405 132.457L47.4381 132.459ZM60.2238 64.4209C59.2524 65.5027 59.2833 66.9188 58.919 68.3326C62.1286 68.4257 65.2262 68.5666 68.3786 68.4281C67.7357 66.5344 68.4643 65.486 70.0905 65.517C72.1381 65.5576 74.1857 65.4454 76.3119 65.3976C75.2357 63.246 73.0119 62.2311 70.9571 62.8973C69.9333 63.2293 68.9452 63.6711 67.9524 64.0914C66.3762 64.7624 64.7357 65.1182 63.031 64.963C62.1 64.8794 61.1881 64.612 60.2238 64.4185V64.4209ZM31.7095 28.44C31.2429 29.4144 30.8738 30.3409 30.3738 31.1887C29.8167 32.1368 29.6381 33.1278 29.7929 34.1785C29.9262 35.0717 30.1286 35.96 30.3619 36.8341C30.4286 37.0824 30.6619 37.3833 30.8929 37.4717C31.6929 37.7821 32.5119 38.0639 33.3452 38.255C34.219 38.4556 34.9762 38.1451 35.4905 37.3929C35.95 36.7242 36.3619 36.0197 36.6333 35.5899C36.369 34.4866 36.181 33.6579 35.9691 32.8365C35.9191 32.6382 35.8429 32.4161 35.7048 32.28C34.4095 31.0167 33.0976 29.7678 31.7119 28.44H31.7095ZM78.7786 65.1827H87.9381C86.8691 63.7547 85.8952 63.0693 84.431 63.0526C82.6024 63.0311 80.769 63.2054 78.9524 63.2961C78.8833 64.0364 78.8286 64.6335 78.7762 65.1827H78.7786ZM133.071 49.2902C135.345 47.7833 135.895 44.7218 134.25 42.7565C134.031 43.8335 133.788 44.9248 133.588 46.0233C133.395 47.0788 132.781 48.0842 133.074 49.2926L133.071 49.2902ZM77.8714 65.295C77.731 64.6717 77.7024 64.0508 77.4452 63.5469C77.1429 62.9523 76.4738 62.9141 75.769 62.8305C76.1952 63.3606 76.5405 63.7976 76.8952 64.2275C77.1905 64.5857 76.9905 65.4144 77.8714 65.2973V65.295Z" fill="#F2C09B"/>
<path d="M26.0786 89.3116C26.1691 88.76 26.1452 88.3445 26.3071 88.0221C27.1976 86.2406 28.1286 84.4758 29.4833 82.9881C30.9857 81.3355 32.9191 80.366 34.9881 79.6949C38.9571 78.4054 43.0429 77.8012 47.2143 77.7319C49.2857 77.6985 51.3571 77.5934 53.4238 77.4716C54.1452 77.4287 54.8595 77.2424 55.581 77.1206C55.7333 77.8752 55.581 78.3696 54.6881 78.711C53.3667 79.2149 52 79.6758 50.6095 79.9027C48.3143 80.2776 45.9714 80.3612 43.6786 80.7361C41.0833 81.1612 38.5048 81.7081 35.9452 82.3146C32.7262 83.0764 30.3881 85.1827 28.2905 87.6114C27.7333 88.2585 27.2286 88.9821 26.081 89.3093L26.0786 89.3116Z" fill="#F2C09B"/>
<path d="M26.7405 19.5659C26.7214 18.5224 27.1452 17.8465 27.9262 17.6627C28.9786 17.4167 30.1214 17.9683 30.4929 18.8973C30.8357 19.7498 30.4691 21.2185 29.681 21.6842C29.3262 21.8943 28.7738 21.9612 28.369 21.8609C27.5667 21.6627 26.7524 20.4065 26.7381 19.5636L26.7405 19.5659ZM28.7238 20.7361C29.4048 19.7474 29.4357 19.4465 28.9452 19.1767C28.3143 18.828 28.0024 19.1767 27.7667 19.843C28.0476 20.1056 28.3452 20.3827 28.7238 20.7361Z" fill="#F2C09B"/>
</svg>
