<svg width="306" height="704" viewBox="0 0 306 704" xmlns="http://www.w3.org/2000/svg">
<g clip-path="url(#clip0_197_1566)">
<path d="M138.65 210.92L81.1199 268.23L138.65 325.76C106.91 357.5 55.5499 357.5 23.8099 325.76C-7.93012 294.02 -7.93012 242.66 23.8099 210.92C55.5499 179.18 106.91 179.18 138.65 210.92Z" />
<path d="M299.34 268.23C299.34 313.64 262.53 350.45 217.12 350.45C171.71 350.45 134.9 313.64 134.9 268.23C134.9 222.82 171.71 186.01 217.12 186.01C262.53 186.01 299.34 222.82 299.34 268.23Z" />
<path d="M5.33984 379.09L71.4898 429.17L137.64 379.09L138.02 516.49H5.71984L5.33984 379.09Z" />
<path d="M221.55 374.93L138.02 516.48V516.5H205.79V473.68C205.79 464.34 213.42 456.71 222.76 456.71C228.57 456.71 233.7 459.65 236.79 463.98C234.73 462.8 232.38 462.14 229.81 462.14C222.98 462.14 217.32 467.13 216.29 473.68L216.15 475.74V510.12L236.73 516.5H305.08L221.55 374.93ZM220.64 492.94C219.33 492.94 218.28 491.88 218.28 490.58C218.28 489.28 219.34 488.22 220.64 488.22C221.94 488.22 223 489.28 223 490.58C223 491.88 221.94 492.94 220.64 492.94Z" />
<path d="M78.2698 609.81V556.87H149.67V700.49H6.0498V553.38L78.2698 609.8V609.81Z" />
<path d="M160.75 556.47C307.66 556.47 157.47 556.47 304.37 556.47V631.56C304.37 671.16 272.16 703.37 232.56 703.37C192.96 703.37 160.75 671.16 160.75 631.56V556.47Z" />
<path d="M144.19 24.91L86.6601 82.22L144.19 139.75C112.45 171.49 61.0901 171.49 29.3501 139.75C-2.3999 108.01 -2.3999 56.65 29.3501 24.91C61.0901 -6.83002 112.45 -6.83002 144.19 24.91Z" />
<path d="M304.88 82.22C304.88 127.63 268.07 164.44 222.66 164.44C177.25 164.44 140.44 127.63 140.44 82.22C140.44 36.81 177.25 0 222.66 0C268.07 0 304.88 36.81 304.88 82.22Z" />
</g>
<defs>
<clipPath id="clip0_197_1566">
<rect width="305.08" height="703.37" />
</clipPath>
</defs>
</svg>
