<svg width="217" height="149" viewBox="0 0 217 149" fill="none" xmlns="http://www.w3.org/2000/svg">
<path d="M194.183 133.099C194.425 127.611 194.669 122.066 194.921 116.292C194.597 116.73 194.361 117.001 194.178 117.306C191.812 121.285 189.413 125.245 187.116 129.261C186.076 131.08 184.66 132.026 182.559 131.954C181.455 131.917 180.351 131.949 179.304 131.949C179.625 134.366 179.983 136.684 180.224 139.016C180.391 140.642 180.444 142.283 180.468 143.916C180.489 145.239 180.123 146.493 179.441 147.632C178.608 149.021 177.266 149.165 176.277 147.895C175.754 147.223 175.319 146.421 175.072 145.606C173.788 141.361 172.725 137.059 172.104 132.66C172.037 132.188 171.945 131.718 171.836 131.088C171.096 131.152 170.398 131.245 169.7 131.266C167.92 131.319 166.138 131.364 164.355 131.367C156.163 131.378 147.974 131.38 139.782 131.367C136.264 131.362 132.749 131.314 129.232 131.274C121.093 131.181 112.957 131.067 104.818 130.99C95.9071 130.908 86.9963 130.817 78.0828 130.807C72.0159 130.799 65.9489 130.979 59.8793 130.969C55.2581 130.961 50.6395 130.817 46.021 130.674C44.2011 130.618 42.384 130.395 40.4766 130.241C40.3599 130.512 40.1768 130.793 40.1105 131.104C39.2855 135.014 38.5241 138.939 37.6354 142.835C37.3622 144.036 36.8741 145.226 36.2772 146.307C35.5848 147.56 34.6431 147.876 33.4944 147.56C32.6641 147.332 31.8497 146.206 31.8948 145.053C31.9903 142.602 32.1123 140.145 32.367 137.707C32.5792 135.659 32.9957 133.633 33.3379 131.481C32.81 131.524 32.3537 131.545 31.9001 131.601C29.0005 131.949 26.6873 130.99 25.0823 128.507C24.061 126.929 23.0901 125.319 22.0926 123.726C21.952 123.5 21.7902 123.285 21.5249 122.9C21.2755 123.558 21.0925 124.039 20.9121 124.523C19.3867 128.584 17.9118 132.663 16.3227 136.7C14.7443 140.708 14.2031 140.012 11.3248 140.065C11.1312 140.068 10.9375 140.055 10.7465 140.065C8.53143 140.209 7.37746 139.667 6.59488 137.122C4.98993 131.919 3.52558 126.674 2.07979 121.426C1.8039 120.424 1.83308 119.327 1.82247 118.273C1.81186 117.131 2.04266 116.921 3.17541 116.895C4.51508 116.865 5.8574 116.887 7.34297 116.887C7.20768 116.422 7.16789 116.146 7.05382 115.904C4.80689 111.107 3.37171 106.072 2.78544 100.813C2.03735 94.0718 1.37945 87.323 0.702985 80.5742C0.493412 78.468 0.320983 76.3592 0.188343 74.2477C0.14855 73.6341 0.230786 72.9887 0.389955 72.3965C0.472192 72.0963 0.832975 71.7006 1.10356 71.6687C1.36619 71.6395 1.82512 71.9609 1.93389 72.2344C2.26814 73.079 2.56261 73.9608 2.72177 74.8559C3.42477 78.7867 4.04553 82.7335 4.75383 86.6643C5.55498 91.1131 6.41714 95.5512 7.25278 99.992C7.35093 99.9973 7.44909 100.003 7.5499 100.011C7.59499 99.7317 7.67723 99.4502 7.67988 99.1713C7.69049 97.2404 7.50214 95.2856 7.73028 93.3813C8.04332 90.7837 7.32706 88.319 7.18911 85.7879C7.12014 84.5077 7.13871 83.1398 7.51541 81.934C8.12555 79.9739 8.24228 77.9766 8.48899 75.9794C8.94793 72.2557 9.42012 68.5347 9.86314 64.8083C9.97721 63.8548 10.0674 62.8881 10.0409 61.9293C10.0276 61.4831 9.74111 61.0262 9.52358 60.6039C8.6402 58.8829 7.786 57.1459 7.52071 55.207C7.39603 54.3093 7.35359 53.3717 7.465 52.4767C7.61887 51.2549 8.27411 51.0318 9.22382 51.802C10.0064 52.4368 10.7439 53.13 11.6671 53.9428C11.8819 53.3292 12.0703 52.8166 12.2427 52.3014C12.4072 51.8153 12.6672 51.308 13.2216 51.4647C13.5267 51.5524 13.8583 52.0437 13.9193 52.3996C14.0493 53.1539 14.0466 53.9348 14.0387 54.705C14.0228 56.211 14.4048 57.5336 15.5985 58.5429C16.2113 59.0608 16.7976 59.6079 17.5032 60.2348C17.2406 57.7594 16.9833 55.3504 16.726 52.9388C16.5111 50.9203 16.3572 48.9044 16.8294 46.8965C16.8851 46.6627 16.8851 46.3812 17.0178 46.2033C17.3467 45.765 17.681 45.117 18.1134 45.024C18.7262 44.8939 18.7978 45.6535 18.9941 46.1342C19.5539 47.5126 20.1375 48.8831 20.7476 50.3359C21.005 49.664 21.1694 48.992 21.509 48.429C21.7637 48.0093 22.1934 47.6056 22.6391 47.4144C23.1564 47.1913 23.7055 47.3719 23.8806 48.0332C23.9761 48.4024 24.0716 48.7875 24.0636 49.162C24.0053 51.6639 23.9549 54.1685 23.8196 56.6678C23.7771 57.4433 23.9071 58.0754 24.3899 58.6757C25.3503 59.8735 26.2761 61.0979 27.1356 62.2055C28.0031 61.7407 28.8016 61.3131 29.9104 60.7181C31.3085 58.1976 33.8578 56.4367 36.7308 55.0769C40.5827 53.2522 44.6335 52.0597 48.825 51.3266C52.7511 50.6387 56.6614 49.8393 60.6035 49.2496C63.9221 48.753 67.2753 48.4582 70.6178 48.1262C73.5784 47.8314 76.5416 47.5312 79.5101 47.3799C82.3937 47.2338 85.2879 47.2524 88.1768 47.2391C92.2727 47.2205 96.3687 47.1966 100.462 47.2656C102.038 47.2922 103.606 47.5844 105.181 47.7251C105.945 47.7942 106.715 47.8021 107.484 47.8314C110.8 47.9588 114.116 48.0438 117.429 48.2191C121.361 48.4263 125.284 48.7344 129.216 48.9548C132.24 49.1248 135.267 49.2257 138.291 49.3692C140.161 49.4568 142.034 49.5577 143.904 49.6693C144.106 49.6826 144.3 49.8127 144.467 50.1128C143.483 50.1899 142.498 50.3386 141.514 50.3306C139.35 50.3147 137.182 50.2111 135.018 50.158C131.744 50.081 128.47 49.9933 125.197 49.9508C120.767 49.8951 116.331 49.9747 111.904 49.826C104.836 49.5896 97.7694 49.3479 90.6996 49.1912C86.4551 49.0983 82.2212 49.1647 78.0059 49.417C71.5888 49.8021 65.1902 50.5006 58.7863 51.1088C56.16 51.3585 53.4886 51.4913 50.9366 52.0969C47.4376 52.9255 43.9969 54.057 40.5933 55.2389C37.1102 56.4473 33.9507 58.2932 31.1917 60.7819C31.0167 60.9386 30.7593 61.0076 30.3667 61.2042C37.4126 64.9836 43.6653 69.4218 50.8783 71.9795C56.7702 74.0671 62.7204 75.9953 68.6999 77.8226C72.0106 78.8345 75.4778 79.1559 78.9238 79.5171C83.5052 79.9978 88.0786 80.5476 92.6388 81.1851C94.1483 81.3949 95.61 81.9606 97.0876 82.3856C97.6845 82.5582 98.2628 82.7893 98.9101 83.015C98.9737 82.7388 99.048 82.5608 99.0533 82.3776C99.1143 80.707 100.048 79.6791 101.547 79.1931C102.627 78.8425 103.77 78.6858 104.98 78.4202C103.239 75.6075 102.353 72.7603 105.314 69.8866C105.439 69.0366 105.25 68.0831 104.927 67.0473C104.112 64.4312 103.491 61.746 102.892 59.0688C102.515 57.3875 103.255 56.7236 104.953 57.0821C108.187 57.7647 111.182 59.0608 114.039 60.6942C115.517 61.5388 116.546 62.7765 117.156 64.3674C117.31 64.7685 117.48 65.1616 117.681 65.6503C127.484 64.1151 137.211 64.0354 147.051 66.7658C146.223 65.2227 145.929 63.7725 146.053 62.2161C146.082 61.839 145.724 61.3343 145.406 61.0395C143.727 59.4778 143.374 57.5018 143.581 55.3584C143.655 54.6014 144.048 53.9985 144.936 53.7887C144.936 53.0238 144.918 52.2562 144.939 51.4886C144.997 49.4993 145.732 47.9535 147.73 47.2125C148.016 47.1063 148.255 46.8194 148.467 46.5724C150.067 44.7026 152.075 43.7863 154.545 43.7571C157.795 43.7173 160.861 44.2617 163.583 46.1767C164.602 46.8938 165.331 47.7968 165.729 48.9973C166.002 49.8127 166.406 50.5856 166.785 51.4594C168.788 51.3027 170.743 51.3851 172.648 51.9348C176.441 53.0291 179.77 54.8405 182.113 58.1525C183.524 60.1471 183.957 62.479 184.275 64.8269C184.609 67.3023 184.835 69.7962 185.14 72.2769C185.19 72.6833 185.344 73.1082 185.562 73.4535C186.294 74.6222 187.076 75.7563 187.92 77.0285C189.827 74.731 192.485 73.5598 195.472 73.257C194.891 58.6571 195.35 44.1582 195.374 29.5397C194.382 29.4919 193.34 29.4281 192.294 29.3936C188.015 29.2555 183.736 29.128 179.457 28.9952C178.043 28.9501 177.327 28.3604 177.444 26.9581C177.63 24.7111 177.89 22.4509 178.354 20.2464C179.197 16.2412 180.264 12.2812 181.139 8.28129C181.55 6.40617 181.696 4.47528 182.033 2.58157C182.137 1.99726 182.452 1.44482 182.702 0.892376C182.933 0.377117 183.386 0.305404 183.906 0.305404C187.084 0.318684 190.26 0.310719 193.438 0.308063C198.207 0.308063 202.977 0.316031 207.747 0.300095C208.511 0.300095 209.28 0.236349 210.039 0.14339C211.617 -0.0504959 212.175 0.239009 212.538 1.79541C213.196 4.60808 213.84 7.42873 214.35 10.2706C215.231 15.1974 216.005 20.1455 216.814 25.0856C216.883 25.5106 216.899 25.9462 216.915 26.3764C216.939 27.051 216.599 27.4202 215.952 27.6221C213.087 28.5145 210.15 28.9421 207.163 29.0882C204.723 29.2077 202.285 29.3405 199.961 29.4627C199.961 34.4904 199.924 39.4491 199.972 44.4078C200.011 48.3599 200.165 52.312 200.247 56.2641C200.356 61.422 200.444 66.5825 200.537 71.7431C200.547 72.3672 200.537 72.994 200.537 73.751C200.576 73.7802 200.706 73.921 200.868 73.998C204.296 75.658 205.638 78.5317 205.752 82.1996C205.938 88.2685 204.71 94.0825 202.648 99.7423C201.709 102.321 200.6 104.839 199.616 107.405C199.401 107.963 199.285 108.6 199.298 109.198C199.393 112.953 199.539 116.711 199.672 120.467C199.767 123.211 199.86 125.954 199.964 128.7C199.995 129.564 200.033 130.427 200.112 131.285C200.189 132.103 200.515 132.78 201.412 132.971C203.805 133.486 206.2 133.983 208.593 134.504C209.53 134.708 210.487 134.878 211.384 135.205C212.824 135.728 213.111 136.482 212.599 137.911C212.148 139.17 211.275 140.01 210.081 140.557C207.903 141.555 205.582 141.948 203.221 142.073C197.356 142.384 191.602 141.667 185.973 140.01C185.015 139.728 184.081 139.3 183.203 138.82C182.72 138.557 182.301 138.092 181.98 137.63C181.407 136.798 181.516 136.148 182.437 135.736C183.787 135.133 185.185 134.546 186.625 134.257C189.156 133.747 191.735 133.465 194.194 133.101L194.183 133.099ZM30.6612 86.3031C30.7063 87.2061 30.7381 87.8755 30.77 88.5448C30.945 92.1861 31.9823 95.6495 32.9346 99.1341C34.8765 106.244 36.8475 113.346 38.678 120.485C39.2589 122.746 39.9832 125.014 39.9222 127.418C39.9142 127.726 40.4501 128.119 40.8135 128.339C41.0735 128.496 41.4687 128.445 41.8056 128.464C44.8246 128.629 47.8461 128.825 50.8677 128.939C54.4728 129.078 58.0807 129.205 61.6885 129.224C65.1531 129.242 68.6203 129.059 72.0875 129.062C75.9818 129.064 79.8735 129.218 83.7678 129.234C104.003 129.325 124.236 129.415 144.472 129.457C153.526 129.476 162.583 129.383 171.637 129.335C172.011 129.335 172.382 129.277 172.823 129.24C172.916 128.666 172.977 128.148 173.085 127.638C174.077 123.025 175.133 118.424 176.067 113.798C177.977 104.35 181.235 95.3361 184.702 86.3855C184.856 85.9897 185.063 85.6126 185.246 85.2274C185.05 86.9113 184.644 88.5262 184.187 90.1277C182.76 95.1316 181.168 100.096 179.911 105.142C178.701 109.997 177.874 114.948 176.794 119.837C176.16 122.706 175.367 125.54 174.64 128.387C174.462 129.08 174.25 129.768 174.743 130.498C175.144 130.419 175.529 130.387 175.884 130.267C177.42 129.76 179.004 129.792 180.59 129.829C181.216 129.842 181.85 129.829 182.463 129.938C184.323 130.273 185.434 129.388 186.312 127.85C189.084 122.993 191.965 118.196 194.714 113.325C198.815 106.05 201.776 98.332 203.229 90.0852C203.755 87.1052 204.014 84.0933 203.723 81.039C203.375 77.4295 200.823 75.5066 198.128 75.1772C194.777 74.7709 191.732 75.573 189.074 77.7164C188.458 78.213 188.026 78.7283 187.933 79.6021C187.71 81.7083 186.601 83.2859 184.734 84.3058C183.848 84.7892 182.972 85.3045 182.055 85.7268C179.184 87.0494 176.094 87.5806 173.019 88.1543C169.568 88.7971 166.037 89.2327 162.853 90.7864C160.179 92.0931 157.667 93.7266 155.07 95.19C153.187 96.2524 151.327 97.3785 149.375 98.2922C144.504 100.574 139.302 101.838 134.073 102.916C129.232 103.915 124.348 104.733 119.453 105.447C115.511 106.021 111.545 106.523 107.54 106.35C107.304 106.34 107.065 106.374 106.829 106.401C104.545 106.677 102.489 106.329 101.303 104.507C99.2709 104.38 97.5014 104.329 95.7479 104.141C93.6018 103.91 91.4716 103.498 89.3255 103.28C84.9324 102.834 80.5261 102.507 76.133 102.056C72.4509 101.676 68.8033 101.073 65.2194 100.112C58.2372 98.2337 51.438 95.854 44.7927 92.9962C40.458 91.1317 36.0729 89.3894 32.0009 86.9671C31.6374 86.752 31.2395 86.59 30.6665 86.3111L30.6612 86.3031ZM142.597 86.3111C142.594 86.4253 142.591 86.5422 142.586 86.6564C142.032 86.6936 141.474 86.7865 140.923 86.7599C139.389 86.6856 137.859 86.5395 136.323 86.4651C131.436 86.2261 127.208 84.2846 123.319 81.4507C123.077 81.2754 122.799 81.1505 122.472 80.9646C122.472 81.4374 122.448 81.7773 122.478 82.112C122.698 84.6564 121.897 85.3895 119.53 84.5263C116.732 83.5064 113.981 82.3457 111.248 81.1532C110.49 80.8238 109.874 80.1652 109.155 79.6287C107.935 79.6791 106.593 79.6924 105.258 79.8039C104.165 79.8969 103.056 80.0164 102.001 80.2953C100.406 80.7176 100.221 81.0124 100.433 82.6751C100.592 83.9128 100.863 85.1425 101.17 86.3562C101.881 89.1716 102.449 92.0002 102.223 94.927C102.091 96.6534 101.95 98.3798 101.767 100.104C101.576 101.931 102.356 103.434 103.937 104.292C105.006 104.871 106.094 104.783 107.269 104.759C111.071 104.677 114.838 104.276 118.61 103.854C125.398 103.092 132.113 101.939 138.742 100.284C144.66 98.8048 150.322 96.757 155.447 93.3335C159.742 90.465 164.461 88.6244 169.576 87.7533C172.555 87.246 175.51 86.5607 178.449 85.8383C180.85 85.2487 183.044 84.1385 185.111 82.776C186.166 82.0801 186.662 81.1665 186.668 79.8783C186.676 77.9846 185.776 76.5344 184.524 75.2941C180.76 71.5704 176.468 68.5612 171.706 66.2691C170.202 65.5467 168.56 65.0872 166.941 64.6437C165.612 64.2798 164.992 64.6676 164.384 65.8468C163.538 67.4856 163.151 69.2571 162.8 70.9835C163.233 71.5067 164.039 71.4429 164.241 72.1707C162.076 72.2185 158.803 70.8241 158.23 69.4669C159.442 69.7936 160.522 70.0831 161.591 70.3699C161.936 69.2783 161.896 68.3355 160.981 67.5838C160.195 68.1203 159.466 68.8135 158.601 69.1615C157.386 69.6502 156.71 70.5373 156.094 71.5917C155.327 72.9064 154.325 73.9874 152.874 74.5903C150.81 75.4482 149.016 74.747 148.13 72.7019C147.642 71.5731 147.417 70.4071 147.602 69.1748C147.677 68.6728 147.722 68.1681 147.783 67.6423C145.438 68.1097 143.201 67.9503 140.957 67.7219C137.665 67.3873 134.373 66.9411 131.07 66.8003C127.372 66.6436 123.658 66.7738 119.952 66.7791C119.392 66.7791 118.835 66.7791 118.111 66.7791C119.17 69.86 120.164 72.7577 121.194 75.7483C121.618 75.6606 121.99 75.6128 122.348 75.5092C126.181 74.399 130.014 73.2862 133.842 72.1547C134.516 71.9556 135.166 71.759 136.028 72.0379C135.654 72.3433 135.434 72.6089 135.15 72.747C130.855 74.8134 126.499 76.6991 121.478 76.6805C121.727 77.7775 121.984 78.6513 122.112 79.5437C122.22 80.3033 122.528 80.7442 123.289 80.9726C124.114 81.2222 124.916 81.5728 125.69 81.9606C129.441 83.8357 133.463 84.7095 137.572 85.3151C139.262 85.5621 141.008 85.5993 142.599 86.3191L142.597 86.3111ZM99.1568 84.1332C98.2761 84.0854 97.528 84.1651 96.8488 83.9898C92.5486 82.8796 88.129 82.606 83.7519 82.0589C80.8948 81.7003 78.0218 81.4692 75.1701 81.0655C70.4427 80.3989 65.8534 79.1718 61.3648 77.5358C58.6086 76.5318 55.8364 75.5677 53.0456 74.662C47.0343 72.7098 41.7128 69.4032 36.3117 66.2426C34.6086 65.2466 32.9373 64.1842 31.1838 63.2838C29.0775 62.2028 28.5496 62.4764 27.7298 64.7685C27.7166 64.8057 27.7431 64.8588 27.7776 65.0792C29.0111 66.0062 30.2871 67.1084 31.7011 67.9982C36.8131 71.2198 42.2513 73.7722 47.9947 75.6633C59.4018 79.4162 71.0741 81.9394 83.0065 83.27C86.0148 83.6047 89.0045 84.0748 91.912 84.9698C92.3497 85.1053 92.8325 85.1531 93.1269 85.8543C92.2701 85.8144 91.5591 85.8277 90.8641 85.7374C86.9167 85.2221 82.9746 84.6352 79.0219 84.1544C70.9017 83.1691 62.8955 81.6684 54.9928 79.5145C45.379 76.8957 36.3594 73.0976 28.4328 66.9358C27.9712 66.5772 27.3823 66.378 26.7934 66.0726C26.5944 66.5081 26.4512 66.7525 26.3689 67.0181C25.7455 69.0419 25.0929 71.0605 24.5385 73.1029C24.1485 74.5398 23.7984 76.0033 23.6074 77.4773C23.1299 81.1904 23.8647 82.2448 27.3505 83.5675C28.9183 84.1624 30.4171 84.9406 31.9266 85.6763C32.5261 85.9685 33.0487 86.42 33.6456 86.7174C41.039 90.38 48.7905 93.1316 56.6375 95.6096C61.4497 97.1289 66.2885 98.6215 71.3049 99.3041C75.8678 99.9256 80.4465 100.467 85.0385 100.799C89.5589 101.126 93.9891 101.918 98.4246 102.757C99.048 102.874 99.6927 102.876 100.39 102.94C99.9765 101.2 100.101 99.6759 100.3 98.1355C100.618 95.7026 101.072 93.2538 100.626 90.8023C100.223 88.5846 99.6608 86.3934 99.1541 84.1358L99.1568 84.1332ZM15.1104 73.7536C13.0094 75.1321 11.3514 76.739 10.2372 78.9169C8.64285 82.0376 8.5447 85.2699 9.21055 88.6218C10.0992 93.0865 11.5583 97.3812 13.3383 101.54C14.9274 105.259 16.7419 108.889 18.6174 112.475C20.8962 116.828 23.3288 121.102 25.7243 125.391C26.1912 126.23 26.7695 127.011 27.3478 127.781C28.332 129.091 29.7566 129.55 31.2952 129.503C32.9665 129.449 34.6351 129.216 36.3011 129.038C37.2428 128.937 37.7787 128.132 37.5824 127.205C37.0836 124.849 36.6141 122.488 36.0941 120.14C34.4733 112.804 32.7675 105.487 31.2289 98.1328C30.4622 94.4676 29.6345 90.7864 29.6743 87.0016C29.6823 86.1942 29.3056 85.833 28.5893 85.5329C27.1754 84.9353 25.7774 84.2793 24.4457 83.5197C23.2598 82.845 22.5409 81.7295 22.3738 80.367C22.1881 78.8372 22.1987 77.302 22.5675 75.7855C22.7187 75.1613 22.8009 74.5186 22.9123 73.8997C20.2489 74.739 17.7102 75.8891 15.1078 73.759L15.1104 73.7536ZM210.456 2.19911C201.582 2.11943 192.753 2.0371 183.866 1.95742C183.657 3.3279 183.529 4.66651 183.24 5.96794C182.312 10.1511 181.314 14.3183 180.365 18.4988C179.853 20.7511 179.362 23.0087 178.927 25.2769C178.792 25.9887 178.5 26.7668 178.9 27.3538C191.276 27.3724 203.521 27.5477 215.827 26.3791C213.374 18.4351 212.429 10.2281 210.453 2.19646L210.456 2.19911ZM19.3735 118.903C13.9087 118.501 8.42532 117.702 2.7483 117.537C2.80932 118.324 2.7881 118.903 2.90747 119.452C3.19398 120.77 3.47783 122.092 3.8784 123.375C5.25786 127.792 6.70099 132.188 8.09107 136.599C8.42532 137.656 8.9718 138.448 10.139 138.538C11.1445 138.615 12.1658 138.658 13.1659 138.562C13.5638 138.522 14.0254 138.137 14.2695 137.778C14.6435 137.231 14.8929 136.583 15.129 135.957C15.8293 134.108 16.4978 132.249 17.1796 130.392C18.0418 128.039 18.6758 125.566 19.8351 123.37C20.6946 121.739 20.5885 120.531 19.6016 119.184C19.5459 119.107 19.4796 119.035 19.3735 118.903ZM103.972 58.6704C104.37 62.1338 105.693 65.1031 106.25 68.0725C106.866 68.4444 107.659 68.6542 107.749 69.0313C107.975 69.9795 108.76 70.3514 109.259 71.0021C110.105 72.1043 110.941 73.2278 111.665 74.4123C112.002 74.9648 112.15 75.6739 112.227 76.3299C112.357 77.4428 112.065 77.7456 110.914 77.9607C110.731 77.9952 110.548 78.0244 110.338 78.0616C110.338 79.1718 111.065 79.618 111.893 79.9288C114.548 80.9274 117.209 81.9101 119.875 82.8796C120.252 83.0177 120.663 83.0522 121.332 83.193C120.95 81.3232 120.759 79.6472 120.257 78.0669C118.857 73.6633 117.331 69.2996 115.846 64.9225C115.381 63.5547 114.376 62.665 113.111 62.0939C111.447 61.3423 109.763 60.6278 108.057 59.9798C106.778 59.4937 105.449 59.1405 103.972 58.673V58.6704ZM160.978 62.9438C160.946 62.7393 160.882 62.5959 160.909 62.4711C161.05 61.8151 161.206 61.1617 161.371 60.511C161.707 59.1803 161.424 58.7474 160.073 58.5562C159.598 58.4898 159.126 58.3835 158.651 58.3649C157.564 58.3251 156.707 57.7806 155.993 57.0609C155.497 56.5589 155.174 55.8843 154.778 55.284C153.929 54.0012 153.189 52.628 152.21 51.4541C150.849 49.818 149.539 49.9588 148.412 51.7914C147.915 52.5962 147.398 53.5311 147.337 54.4368C147.138 57.4539 147.064 60.4844 147.112 63.5069C147.13 64.7154 147.772 65.8442 148.754 66.6277C152.226 69.4032 155.219 69.8361 158.731 67.2996C159.041 67.0739 159.323 66.8083 159.633 66.5799C161.134 65.4723 162.328 63.9983 164.002 63.0793C164.692 62.7021 165.443 62.1231 165.432 60.9864C163.594 60.9094 162.509 62.418 160.978 62.9385V62.9438ZM166.021 63.244C168.833 63.2519 171.255 64.1417 173.597 65.297C176.412 66.6861 179.004 68.439 181.516 70.3115C181.97 70.6488 182.439 70.9622 183.047 71.3898C182.946 70.5054 182.89 69.8441 182.795 69.1854C182.429 66.6675 182.094 64.1417 181.657 61.6371C181.346 59.8549 180.277 58.4845 178.951 57.3132C175.72 54.458 171.743 53.4541 167.453 52.6148C168.148 55.531 167.599 58.0808 165.976 60.333C166.551 61.4273 166.554 61.5734 166.021 63.2466V63.244ZM8.55266 52.1818C8.22636 54.2562 8.68795 56.0728 9.52624 57.7674C10.5953 59.9267 11.7679 62.0328 12.9271 64.1443C14.0705 66.2213 15.0414 68.3541 15.5587 70.6887C16.0309 72.8294 16.7764 73.3552 18.9198 73.0976C20.4346 72.9144 21.9334 72.6063 23.4694 72.3486C23.8169 71.443 24.2281 70.5134 24.5332 69.5519C24.8197 68.6382 25.6553 67.8786 25.4192 66.7764C24.1326 66.965 23.1882 66.8561 22.143 66.309C20.3391 65.3634 18.6572 64.224 17.3388 62.657C15.1369 60.0409 13.0147 57.3583 10.8367 54.7236C10.1125 53.8471 9.31667 53.0291 8.55531 52.1845L8.55266 52.1818ZM17.9754 45.927C17.8481 46.3573 17.7897 46.5167 17.7526 46.6813C17.3255 48.5511 17.5351 50.4076 17.8826 52.2615C18.4476 55.2867 19.0843 58.3065 18.3574 61.4034C20.103 63.0209 21.9812 64.2639 24.2414 64.9969C25.2786 65.3316 26.1116 65.5414 27.0083 64.7472C26.934 64.548 26.9181 64.2506 26.7642 64.1284C24.5703 62.3622 23.2254 59.9638 21.9175 57.5575C20.5513 55.0423 19.8669 52.2775 19.2435 49.4993C18.9862 48.3572 18.6944 47.2178 17.9754 45.927ZM172.772 130.865C172.722 130.974 172.669 131.083 172.618 131.194C174.231 135.919 175.842 140.65 177.47 145.369C177.598 145.736 177.871 146.052 178.142 146.498C178.884 145.534 179.041 144.615 179.038 143.64C179.028 139.728 178.097 135.946 177.46 132.05C176.651 131.917 175.844 131.84 175.067 131.643C174.287 131.447 173.536 131.133 172.772 130.87V130.865ZM34.8951 131.184C34.4229 134.883 33.9799 144.74 34.33 145.709C34.7014 145.298 35.0993 145.016 35.2691 144.634C35.6538 143.762 36.0039 142.859 36.2241 141.935C36.8528 139.274 37.4046 136.597 38.0015 133.927C38.2801 132.676 38.5931 131.433 38.9141 130.081C37.5081 130.469 36.2401 130.817 34.8951 131.186V131.184ZM148.335 68.1203C148.743 69.6794 148.961 70.9543 149.422 72.1335C149.865 73.2623 150.791 73.6554 151.884 73.3446C153.553 72.8719 154.638 71.6422 155.651 70.3062C153.012 70.5638 150.828 69.4297 148.332 68.1203H148.335ZM109.158 78.8C108.802 77.9713 108.627 77.1241 108.145 76.5291C106.744 74.8081 105.776 72.9648 105.876 70.4204C105.632 70.8161 105.481 70.9914 105.404 71.1933C104.608 73.3074 104.836 75.2994 105.969 77.2675C106.654 78.4547 107.532 79.0125 109.155 78.8027L109.158 78.8ZM106.802 70.7657C107.171 73.8891 109.474 76.6487 111.649 76.5743C111.307 74.1494 108.728 71.0578 106.802 70.7657ZM16.3917 112.669C16.2962 112.664 16.1981 112.658 16.1026 112.656C15.6728 114.01 15.243 115.367 14.7655 116.865H18.4476C17.7261 115.397 17.0576 114.034 16.3891 112.672L16.3917 112.669ZM13.2932 68.131C13.1526 68.1575 13.012 68.1841 12.8714 68.208C12.9882 69.937 13.1049 71.6661 13.2349 73.5943C13.8079 73.2809 14.1925 73.0711 14.5613 72.8665C14.1129 71.1959 13.7044 69.6608 13.2932 68.1283V68.131ZM144.987 54.7927C144.483 56.8298 145.016 58.6252 146.379 60.58C145.987 58.4048 146.247 56.4367 144.987 54.7927ZM162.238 67.2279C162.514 66.5533 162.694 66.1098 162.928 65.5387C161.755 66.0699 161.676 66.2266 162.238 67.2279ZM107.2 69.6927C106.998 69.5493 106.861 69.3739 106.728 69.3793C106.603 69.3846 106.367 69.6422 106.388 69.682C106.479 69.86 106.643 69.9981 106.781 70.1495C106.898 70.022 107.014 69.8945 107.2 69.6927Z" fill="#B3C2C2"/>
<path d="M130.128 81.7826C131.885 82.011 133.638 82.2607 135.397 82.4679C139.368 82.938 143.347 83.0442 147.34 82.7308C149.016 82.598 150.714 82.7122 152.391 82.5688C153.688 82.4573 154.964 82.2979 156.224 82.7096C152.107 84.837 136.02 85.3894 130.131 81.7826H130.128Z" fill="#B3C2C2"/>
<path d="M180.598 81.9154C179.983 81.6844 179.444 81.5463 178.967 81.2966C175.733 79.6101 169.244 75.0896 168.509 74.0405C172.311 74.3592 180.099 79.3099 180.601 81.9154H180.598Z" fill="#B3C2C2"/>
<path d="M148.987 76.9833C152.319 75.2304 155.919 74.407 158.561 71.427C157.651 74.5212 152.42 77.5304 148.987 76.9833Z" fill="#B3C2C2"/>
<path d="M200.11 25.168C200.213 23.4256 204.564 15.5082 206.773 13.0328C205.184 17.4285 202.624 21.2849 200.11 25.168Z" fill="#B3C2C2"/>
<path d="M202.701 24.7138C204.174 22.2756 205.649 19.8374 207.121 17.3966C207.132 18.6555 204.595 22.9688 202.927 24.9263C202.853 24.8546 202.776 24.7855 202.701 24.7138Z" fill="#B3C2C2"/>
<path d="M62.1474 51.7675C62.9963 51.1354 63.8585 50.49 64.8745 49.733C64.1078 49.6905 63.4738 49.6534 62.6965 49.6109C63.572 47.6933 64.7923 46.1687 66.3627 44.9656C68.8219 43.0798 71.6816 42.0653 74.7085 41.5845C78.8999 40.9205 83.0569 41.287 87.1634 42.2963C88.5668 42.6389 89.9622 43.0214 91.3761 43.3003C92.0207 43.4278 92.7158 43.4331 93.371 43.3534C95.7108 43.0745 98.0293 42.5619 100.406 42.7266C100.963 42.7638 101.518 42.8594 102.388 42.9656C101.998 43.5473 101.812 43.9616 101.507 44.2431C101.123 44.5937 100.87 44.9071 100.982 45.4755C101.138 46.2723 101.215 47.0824 101.34 47.9721C102.139 48.7769 103.6 48.1501 104.446 49.1859C104.213 50.2536 103.324 50.4183 102.491 50.5086C100.902 50.6786 99.3133 50.6042 97.7614 50.166C97.4431 50.0757 97.1168 50.0146 96.6234 49.9004C96.6021 50.4873 96.5836 50.9946 96.5623 51.4993C96.496 53.2283 96.496 54.9627 96.3262 56.6837C96.2599 57.3663 95.8938 58.0595 95.5224 58.6598C95.0661 59.3955 94.257 59.6611 93.6628 59.4406C93.0394 59.2069 92.5911 58.3517 92.6654 57.5204C92.8219 55.7515 92.9837 53.9826 93.1376 52.2137C93.1561 51.9853 93.1402 51.7542 93.1402 51.4196C92.676 51.5922 92.3231 51.7224 91.9703 51.8552C88.8665 53.045 85.6646 53.0636 82.4255 52.6466C81.4121 52.5165 80.7012 52.0491 80.6004 50.822C79.4119 50.7609 78.2235 50.6998 76.7246 50.6228C77.5098 51.5789 78.1704 52.3173 78.7487 53.1167C79.0113 53.4806 79.2342 53.956 79.2634 54.3943C79.3191 55.2601 78.8469 55.7223 77.9661 55.7887C76.974 55.8657 76.0057 55.6718 75.2603 55.0078C74.2204 54.0835 73.2654 53.0663 72.2838 52.0783C71.8806 51.6746 71.5065 51.2416 71.0184 50.7158C70.5091 51.0982 70.0448 51.4169 69.6124 51.7728C67.8218 53.2442 65.7234 53.3027 63.5746 53.0902C62.9804 53.0318 62.4817 52.721 62.1501 51.7755L62.1474 51.7675Z" fill="#B3C2C2"/>
</svg>
